<?xml version="1.0" standalone="no"?>
<!DOCTYPE svg PUBLIC "-//W3C//DTD SVG 20010904//EN"
 "http://www.w3.org/TR/2001/REC-SVG-20010904/DTD/svg10.dtd">
<svg version="1.0" xmlns="http://www.w3.org/2000/svg"
 width="200.000000pt" height="200.000000pt" viewBox="0 0 200.000000 200.000000"
 preserveAspectRatio="xMidYMid meet">
<metadata>
Created by potrace 1.11, written by Peter Selinger 2001-2013
</metadata>
<g transform="translate(0.000000,200.000000) scale(0.100000,-0.100000)"
fill="#000000" stroke="none">
<path d="M817 1694 c-37 -20 -68 -87 -57 -124 8 -26 6 -29 -26 -34 -43 -9 -87
-46 -122 -105 -23 -40 -27 -57 -27 -126 0 -71 4 -88 33 -148 19 -38 32 -69 30
-70 -1 -2 -34 -10 -73 -20 -87 -21 -221 -85 -207 -99 6 -6 39 -1 92 12 45 12
84 19 86 17 2 -1 -30 -18 -71 -37 -41 -19 -75 -37 -75 -40 0 -14 26 -30 50
-30 14 0 88 24 163 54 76 30 137 51 135 48 -2 -4 -14 -34 -27 -67 l-24 -60
-76 -1 c-117 -1 -198 -53 -247 -157 -56 -121 -14 -238 97 -271 164 -49 340 72
343 237 0 34 -3 74 -7 88 -9 27 -8 27 55 31 77 5 130 29 184 84 29 29 46 39
55 33 8 -5 26 -9 40 -9 29 0 41 24 33 63 -15 74 -15 125 0 162 28 67 34 69 77
28 l38 -36 -18 -26 c-43 -61 -55 -164 -27 -218 36 -70 104 -104 198 -99 80 5
133 30 187 92 100 114 88 269 -26 325 -66 32 -192 25 -241 -14 -10 -8 -23 0
-53 32 -21 24 -39 47 -39 52 0 12 51 45 90 57 19 6 56 12 83 14 30 1 47 6 47
14 0 31 -157 17 -232 -21 -28 -14 -52 -24 -53 -23 -1 2 -11 24 -22 49 l-20 46
-54 -5 c-48 -3 -63 1 -134 39 -93 48 -111 62 -67 50 38 -11 60 7 44 36 -7 12
-6 26 4 45 8 15 15 31 15 35 0 5 11 7 25 6 13 -1 24 1 24 5 0 4 -25 29 -56 55
-61 51 -96 59 -147 31z m126 -344 c54 -27 59 -36 20 -38 -16 -1 -42 -3 -59 -6
-28 -4 -31 -2 -28 22 1 15 2 33 3 40 1 8 4 12 9 10 4 -2 28 -14 55 -28z m618
-233 c47 -36 54 -115 15 -181 -68 -117 -214 -122 -245 -9 -11 38 -5 89 13 115
12 17 14 17 30 -1 12 -14 16 -29 12 -48 -8 -37 4 -53 47 -63 25 -5 44 -3 64 7
35 18 32 15 43 52 7 26 5 36 -11 52 -10 10 -32 19 -47 19 -32 0 -82 44 -66 59
30 30 105 28 145 -2z m-914 -330 c3 -4 -6 -22 -21 -42 -18 -23 -35 -35 -52
-35 -35 0 -72 -43 -70 -81 3 -37 19 -49 70 -49 40 0 86 30 86 55 0 7 13 28 30
46 32 36 35 32 30 -31 -8 -98 -134 -183 -212 -144 -105 54 -73 225 52 277 33
14 74 16 87 4z"/>
</g>
</svg>
